<svg width="106" height="102" viewBox="0 0 106 102" fill="none" xmlns="http://www.w3.org/2000/svg">
<path d="M6.17189 41.5808L48.7317 6.31693C50.9361 4.49043 54.1238 4.47568 56.3451 6.2817L99.7852 41.6022C101.186 42.7416 102 44.4515 102 46.2575V91.5C102 94.8137 99.3137 97.5 96 97.5H81C77.6863 97.5 75 94.8137 75 91.5V51.5C75 43.768 68.732 37.5 61 37.5H45C37.268 37.5 31 43.768 31 51.5V91.5C31 94.8137 28.3137 97.5 25 97.5H10C6.68629 97.5 4 94.8137 4 91.5V46.2009C4 44.4143 4.79618 42.7207 6.17189 41.5808Z" stroke="#C4C4C4" stroke-width="8"/>
</svg>
