<svg width="100" height="93" viewBox="0 0 100 93" fill="none" xmlns="http://www.w3.org/2000/svg">
<path d="M15.972 6.99204L15.972 6.99205C15.9802 7.04107 15.9896 7.09943 16.0003 7.16545C16.0571 7.51786 16.1491 8.08872 16.283 8.62442L18.2181 16.365L16.164 9.98634C15.4104 7.64634 13.8566 5.72989 11.8636 4.5H14C14.378 4.5 14.5881 4.57842 14.7116 4.64237C14.8488 4.71343 15.0068 4.83495 15.1795 5.0518C15.5677 5.53949 15.8554 6.2959 15.972 6.99204ZM33.7575 64.6189L19.4974 20.3375C21.4901 24.3532 25.6186 27 30.2462 27H89.0373C91.6773 27 93.5836 29.5035 92.8909 32.0363C90.9886 38.9924 88.8362 46.8173 87.0814 53.0972C86.2036 56.2385 85.4278 58.9844 84.8335 61.0387C84.536 62.0672 84.2874 62.9104 84.0961 63.5382C84.0002 63.8528 83.9224 64.1011 83.8624 64.2854C83.8064 64.4574 83.782 64.5236 83.7823 64.5237C83.7824 64.5238 83.7837 64.5205 83.7861 64.5144C83.5219 65.1749 83.3273 65.414 83.2656 65.4777C83.2285 65.4861 83.1451 65.5 83 65.5H34.5053C34.4986 65.499 34.4311 65.4895 34.3257 65.4154C34.2197 65.3409 33.9823 65.1344 33.7575 64.6189ZM3.74854 4.5H3.75C3.74951 4.5 3.74902 4.5 3.74854 4.5Z" stroke="#C5C5C5" stroke-width="8"/>
<circle cx="41" cy="85" r="4" stroke="#C5C5C5" stroke-width="8"/>
<circle cx="77" cy="85" r="4" stroke="#C5C5C5" stroke-width="8"/>
</svg>
