<svg width="99" height="93" viewBox="0 0 99 93" fill="none" xmlns="http://www.w3.org/2000/svg">
<mask id="path-1-inside-1" fill="white">
<path d="M6.07449 6.5H3.25C1.45507 6.5 0 5.04493 0 3.25C0 1.45507 1.45361 0 3.24854 0H13.5C17.483 0 19.035 3.55083 19.417 5.83107C19.4912 6.27371 19.5547 6.71886 19.6636 7.15428L21.9851 16.4403C22.8754 20.0016 26.0753 22.5 29.7462 22.5H88.5373C93.8089 22.5 97.6398 27.5066 96.2493 32.5914C92.4432 46.509 87.6305 63.9238 87 65.5C86.2 67.5 85 69 82.5 69H34C32.4 69 30.5 68 29.5 65.5L11.8566 10.7125C11.0481 8.20196 8.71197 6.5 6.07449 6.5Z"/>
</mask>
<path d="M11.8566 10.7125L40.4124 1.51653L11.8566 10.7125ZM29.5 65.5L0.944183 74.6959L1.26138 75.6809L1.6457 76.6417L29.5 65.5ZM87 65.5L114.854 76.6418L114.854 76.6417L87 65.5ZM96.2493 32.5914L67.3118 24.6778L67.3118 24.6778L96.2493 32.5914ZM21.9851 16.4403L51.0893 9.16422L51.0893 9.16422L21.9851 16.4403ZM19.6636 7.15428L48.7678 -0.121787L48.7678 -0.121811L19.6636 7.15428ZM19.417 5.83107L-10.1706 10.7884L-10.1705 10.7885L19.417 5.83107ZM3.25 36.5H6.07449V-23.5H3.25V36.5ZM-16.6993 19.9084L0.944183 74.6959L58.0558 56.3041L40.4124 1.51653L-16.6993 19.9084ZM1.6457 76.6417C6.88038 89.7284 19.2903 99 34 99V39C45.5098 39 54.1196 46.2716 57.3543 54.3583L1.6457 76.6417ZM34 99H82.5V39H34V99ZM82.5 99C90.4245 99 98.5474 96.3627 105.171 90.5528C110.971 85.4647 113.661 79.6239 114.854 76.6418L59.1457 54.3582C59.5386 53.3761 61.229 49.2853 65.6044 45.4472C70.8026 40.8873 77.0755 39 82.5 39V99ZM114.854 76.6417C115.717 74.4854 116.652 71.1706 116.994 69.9869C117.632 67.7842 118.44 64.922 119.327 61.7474C121.107 55.3786 123.278 47.4841 125.187 40.505L67.3118 24.6778C65.4143 31.6163 63.2764 39.3881 61.5406 45.6001C60.67 48.7158 59.919 51.3728 59.3576 53.3136C59.0739 54.2939 58.8644 55.0026 58.7253 55.4589C58.4235 56.4492 58.6577 55.5782 59.1457 54.3583L114.854 76.6417ZM88.5373 -7.5H29.7462V52.5H88.5373V-7.5ZM51.0893 9.16422L48.7678 -0.121787L-9.4407 14.4303L-7.1192 23.7164L51.0893 9.16422ZM49.0046 0.873751C48.2557 -3.5962 46.3033 -10.3141 41.2794 -16.6247C35.4695 -23.9225 25.8639 -30 13.5 -30V30C5.11903 30 -1.71909 25.6979 -5.66166 20.7456C-8.81833 16.7805 -9.80368 12.9781 -10.1706 10.7884L49.0046 0.873751ZM13.5 -30H3.24854V30H13.5V-30ZM48.7678 -0.121811C48.9554 0.628579 49.0533 1.18171 49.0765 1.31412C49.0888 1.38455 49.0937 1.41649 49.0796 1.32968C49.0737 1.29372 49.0369 1.06671 49.0046 0.873669L-10.1705 10.7885C-10.1709 10.7863 -10.1692 10.7966 -10.1631 10.8337C-10.1413 10.9675 -10.1648 10.8239 -10.1365 10.997C-10.1145 11.1317 -10.073 11.3852 -10.0219 11.6766C-9.92116 12.2511 -9.73715 13.2446 -9.4407 14.4304L48.7678 -0.121811ZM29.7462 -7.5C39.8413 -7.5 48.6409 -0.629446 51.0893 9.16422L-7.1192 23.7163C-2.89012 40.6327 12.3092 52.5 29.7462 52.5V-7.5ZM125.187 40.505C131.812 16.2798 113.545 -7.5 88.5373 -7.5V52.5C74.0724 52.5 63.468 38.7334 67.3118 24.6778L125.187 40.505ZM6.07449 36.5C-4.31371 36.5 -13.5149 29.7965 -16.6993 19.9084L40.4124 1.51653C35.6111 -13.3926 21.7376 -23.5 6.07449 -23.5V36.5ZM-30 3.25C-30 21.6135 -15.1135 36.5 3.25 36.5V-23.5C18.0236 -23.5 30 -11.5236 30 3.25H-30ZM30 3.25C30 18.006 18.0398 30 3.24854 30V-30C-15.1325 -30 -30 -15.0959 -30 3.25H30Z" fill="#FF0000" mask="url(#path-1-inside-1)"/>
<circle cx="40.5" cy="84.5" r="8" fill="#FF0000"/>
<circle cx="76.5" cy="84.5" r="8" fill="#FF0000"/>
</svg>
