<svg width="95" height="105" viewBox="0 0 95 105" fill="none" xmlns="http://www.w3.org/2000/svg">
<path d="M88.9471 25.6313L53.7865 1.95921C51.9347 0.683309 49.738 0 47.4881 0C45.2381 0 43.0414 0.683309 41.1896 1.95921L6.03377 25.6313C4.1373 26.9865 2.5992 28.7817 1.55196 30.8623C0.504713 32.9429 -0.0202726 35.2466 0.0222255 37.5748V91.0938C-0.179647 94.5633 0.999973 97.9719 3.30402 100.577C5.60807 103.182 8.84977 104.771 12.3227 105H33.3655V67.6939C33.3655 65.4799 34.2462 63.3567 35.814 61.7912C37.3817 60.2258 39.5081 59.3463 41.7252 59.3463H53.2939C55.5111 59.3463 57.6374 60.2258 59.2052 61.7912C60.7729 63.3567 61.6537 65.4799 61.6537 67.6939V105H82.6725C86.1463 104.773 89.3892 103.183 91.6943 100.578C93.9994 97.9734 95.1796 94.5641 94.9778 91.0938V37.5748C95.0196 35.2479 94.4948 32.9456 93.4485 30.866C92.4022 28.7863 90.8657 26.9916 88.971 25.6361" fill="#FDA256"/>
</svg>
