<svg width="106" height="102" viewBox="0 0 106 102" fill="none" xmlns="http://www.w3.org/2000/svg">
<path d="M5.21487 40.4258L47.7747 5.16189C50.5302 2.87877 54.5148 2.86034 57.2913 5.11786L100.731 40.4384C102.483 41.8626 103.5 44 103.5 46.2575V91.5C103.5 95.6421 100.142 99 96 99H81C76.8579 99 73.5 95.6421 73.5 91.5V51.5C73.5 44.5964 67.9036 39 61 39H45C38.0964 39 32.5 44.5964 32.5 51.5V91.5C32.5 95.6421 29.1421 99 25 99H10C5.85786 99 2.5 95.6421 2.5 91.5V46.2009C2.5 43.9677 3.49522 41.8506 5.21487 40.4258Z" stroke="#C4C4C4" stroke-width="5"/>
</svg>
