<svg width="95" height="105" viewBox="0 0 95 105" fill="none" xmlns="http://www.w3.org/2000/svg">
<mask id="path-1-inside-1" fill="white">
<path d="M88.9471 25.6313L53.7865 1.95921C51.9347 0.683309 49.738 0 47.4881 0C45.2381 0 43.0414 0.683309 41.1896 1.95921L6.03377 25.6313C4.1373 26.9865 2.5992 28.7817 1.55196 30.8623C0.504713 32.9429 -0.0202726 35.2466 0.0222255 37.5748V91.0938C-0.179647 94.5633 0.999973 97.9719 3.30402 100.577C5.60807 103.182 8.84977 104.771 12.3227 105H33.3655V67.6939C33.3655 65.4799 34.2462 63.3567 35.814 61.7912C37.3817 60.2258 39.5081 59.3463 41.7252 59.3463H53.2939C55.5111 59.3463 57.6374 60.2258 59.2052 61.7912C60.7729 63.3567 61.6537 65.4799 61.6537 67.6939V105H82.6725C86.1463 104.773 89.3892 103.183 91.6943 100.578C93.9994 97.9734 95.1796 94.5641 94.9778 91.0938V37.5748C95.0196 35.2479 94.4948 32.9456 93.4485 30.866C92.4022 28.7863 90.8657 26.9916 88.971 25.6361"/>
</mask>
<path d="M53.7865 1.95921L48.113 10.1939L48.1572 10.2244L48.2017 10.2544L53.7865 1.95921ZM47.4881 0L47.4881 -10L47.4881 0ZM41.1896 1.95921L46.7749 10.254L46.8192 10.2242L46.8631 10.1939L41.1896 1.95921ZM6.03377 25.6313L0.448451 17.3365L0.333066 17.4142L0.219888 17.4951L6.03377 25.6313ZM0.0222255 37.5748H10.0222V37.4836L10.0206 37.3923L0.0222255 37.5748ZM0.0222255 91.0938L10.0053 91.6746L10.0222 91.3844V91.0938H0.0222255ZM12.3227 105L11.6661 114.978L11.994 115H12.3227V105ZM33.3655 105V115H43.3655V105H33.3655ZM33.3655 67.6939L43.3655 67.6939L33.3655 67.6939ZM41.7252 59.3463L41.7252 49.3463L41.7252 59.3463ZM61.6537 105H51.6537V115H61.6537V105ZM82.6725 105V115H82.9994L83.3256 114.979L82.6725 105ZM94.9778 91.0938H84.9778V91.3843L84.9947 91.6744L94.9778 91.0938ZM94.9778 37.5748L84.9794 37.395L84.9778 37.4849V37.5748H94.9778ZM94.5319 17.3361L59.3713 -6.33597L48.2017 10.2544L83.3623 33.9265L94.5319 17.3361ZM59.4601 -6.27551C55.9387 -8.70166 51.7633 -10 47.4881 -10V10C47.7126 10 47.9306 10.0683 48.113 10.1939L59.4601 -6.27551ZM47.4881 -10C43.2128 -10 39.0374 -8.70166 35.516 -6.27551L46.8631 10.1939C47.0455 10.0683 47.2635 10 47.4881 10L47.4881 -10ZM35.6042 -6.33562L0.448451 17.3365L11.6191 33.9262L46.7749 10.254L35.6042 -6.33562ZM0.219888 17.4951C-2.99489 19.7922 -5.60364 22.8364 -7.38038 26.3664L10.4843 35.3582C10.802 34.7269 11.2695 34.1807 11.8476 33.7676L0.219888 17.4951ZM-7.38038 26.3664C-9.15716 29.8964 -10.0482 33.8057 -9.97611 37.7573L10.0206 37.3923C10.0077 36.6875 10.1666 35.9894 10.4843 35.3582L-7.38038 26.3664ZM-9.97777 37.5748V91.0938H10.0222V37.5748H-9.97777ZM-9.96089 90.5129C-10.3163 96.6214 -8.23916 102.62 -4.18627 107.202L10.7943 93.9514C10.2391 93.3237 9.95701 92.5052 10.0053 91.6746L-9.96089 90.5129ZM-4.18627 107.202C-0.133816 111.784 5.56473 114.577 11.6661 114.978L12.9793 95.0216C12.1348 94.966 11.3499 94.5795 10.7943 93.9514L-4.18627 107.202ZM12.3227 115H33.3655V95H12.3227V115ZM43.3655 105V67.6939H23.3655V105H43.3655ZM43.3655 67.6939C43.3655 68.1368 43.1891 68.5587 42.8799 68.8675L28.7481 54.715C25.3033 58.1547 23.3655 62.8231 23.3655 67.6939L43.3655 67.6939ZM42.8799 68.8675C42.5712 69.1757 42.1555 69.3463 41.7252 69.3463L41.7252 49.3463C36.8606 49.3463 32.1923 51.2758 28.7481 54.715L42.8799 68.8675ZM41.7252 69.3463H53.2939V49.3463H41.7252V69.3463ZM53.2939 69.3463C52.8636 69.3463 52.448 69.1757 52.1392 68.8675L66.2711 54.715C62.8268 51.2758 58.1586 49.3463 53.2939 49.3463V69.3463ZM52.1392 68.8675C51.83 68.5587 51.6537 68.1368 51.6537 67.6939H71.6537C71.6537 62.8231 69.7158 58.1547 66.2711 54.715L52.1392 68.8675ZM51.6537 67.6939V105H71.6537V67.6939H51.6537ZM61.6537 115H82.6725V95H61.6537V115ZM83.3256 114.979C89.4284 114.579 95.1291 111.787 99.1833 107.205L84.2053 93.9515C83.6494 94.5797 82.8643 94.9661 82.0195 95.0213L83.3256 114.979ZM99.1833 107.205C103.238 102.623 105.316 96.623 104.961 90.5131L84.9947 91.6744C85.043 92.5052 84.7607 93.3238 84.2053 93.9515L99.1833 107.205ZM104.978 91.0938V37.5748H84.9778V91.0938H104.978ZM104.976 37.7546C105.047 33.8058 104.157 29.8993 102.382 26.3715L84.5155 35.3605C84.8331 35.9919 84.9921 36.69 84.9794 37.395L104.976 37.7546ZM102.382 26.3715C100.607 22.8437 98.0009 19.8007 94.7897 17.5032L83.1524 33.769C83.7304 34.1825 84.1977 34.729 84.5155 35.3605L102.382 26.3715Z" fill="#C4C4C4" mask="url(#path-1-inside-1)"/>
</svg>
