<svg width="106" height="102" viewBox="0 0 106 102" fill="none" xmlns="http://www.w3.org/2000/svg">
<path d="M46.1797 3.23684L3.61982 38.5007C1.32696 40.4005 0 43.2233 0 46.2009V91.5C0 97.0229 4.47715 101.5 10 101.5H25C30.5228 101.5 35 97.0228 35 91.5V51.5C35 45.9772 39.4772 41.5 45 41.5H61C66.5229 41.5 71 45.9772 71 51.5V91.5C71 97.0229 75.4771 101.5 81 101.5H96C101.523 101.5 106 97.0228 106 91.5V46.2575C106 43.2475 104.644 40.3976 102.309 38.4986L58.8685 3.17813C55.1665 0.168098 49.8537 0.192678 46.1797 3.23684Z" fill="#93CCA7"/>
</svg>
