<svg width="104" height="105" viewBox="0 0 104 105" fill="none" xmlns="http://www.w3.org/2000/svg">
<path d="M0 89.2447C0 103.162 16.2665 104.273 38.2909 104.273C42.4651 104.273 46.8425 104.23 51.3665 104.23C55.8905 104.23 60.2774 104.273 64.4516 104.273C86.5091 104.273 104 103.167 104 89.2447C104 72.6898 80.3636 57 52 57C23.6364 57 0 72.6898 0 89.2447Z" fill="#91CCA8"/>
<path d="M23.9998 26.0238C24.3262 33.2283 27.4945 40.0097 32.8107 44.8829C38.127 49.7561 45.1578 52.3239 52.3634 52.0238C59.569 52.3239 66.5998 49.7561 71.916 44.8829C77.2323 40.0097 80.4006 33.2283 80.727 26.0238C80.4006 18.8194 77.2323 12.0379 71.916 7.16473C66.5998 2.29151 59.569 -0.276247 52.3634 0.0238213C45.1575 -0.277508 38.1259 2.28982 32.8094 7.16329C27.4929 12.0368 24.325 18.8189 23.9998 26.0238H23.9998Z" fill="#91CCA8"/>
</svg>
