<svg width="105" height="105" viewBox="0 0 105 105" fill="none" xmlns="http://www.w3.org/2000/svg">
<path d="M64.9555 99C75 98.9595 83.6817 98.2873 90 96.5C92.8393 95.6968 96 95.5 97.5 93C97.6627 92.8311 99 90.4562 99 89.2441C99 84.615 97.6988 78.0422 88 72.5C74 64.5 71 63.5 52.5 62.5C35 62.5 29.5 66 20 70.5C10.456 76.55 7.5 82.7441 7.5 89.2441C7.5 90.6335 8.88097 92.8687 9 93C9.26459 93.2918 11.4735 95.7528 14 96.5C19.9494 98.2597 29.9584 99 38.8069 99C40.8386 99 42.9189 98.9903 45.0406 98.9804C47.2596 98.9701 49.5542 98.9595 51.8812 98.9595C54.2058 98.9595 56.5002 98.9701 58.719 98.9804C60.8417 98.9903 62.9234 99 64.9555 99ZM64.9555 104.273C60.7806 104.273 56.3978 104.233 51.8812 104.233C47.3609 104.233 42.9818 104.273 38.8069 104.273C16.7663 104.273 0.501503 103.162 0.501503 89.2441C0.501503 72.6918 24.1229 57 52.5 57C80.8772 57 104.5 72.6918 104.5 89.2441C104.5 103.166 86.9998 104.273 64.9555 104.273Z" fill="#C4C4C4"/>
<path d="M52.3636 6.5C37 6.5 31 16.8768 31 26C31 35.1232 39.5 44.5 52.3636 45.5C65.959 46.5569 74.5 35.1232 74.5 26C74.5 16.8768 67.7273 6.5 52.3636 6.5ZM52.3636 0C68.0279 0 80.7273 11.6376 80.7273 26C80.7273 40.3589 68.0279 52 52.3636 52C36.6956 52 24 40.3589 24 26C24 11.6376 36.6956 0 52.3636 0Z" fill="#C4C4C4"/>
</svg>
