<svg width="104" height="105" viewBox="0 0 104 105" fill="none" xmlns="http://www.w3.org/2000/svg">
<path d="M64.454 94.5701C73.4618 94.5701 83.6011 94.4204 89.9194 92.6331C92.7587 91.8299 93.7952 90.985 94.1091 90.659C94.2718 90.4901 94.544 90.2074 94.544 88.9953C94.544 84.3662 90.4446 79.0041 83.5781 74.6516C75.1106 69.2842 63.6002 66.2058 51.9985 66.2058C40.3969 66.2058 28.8869 69.2841 20.4198 74.6515C13.5537 79.0039 9.45455 84.3661 9.45455 88.9953C9.45455 90.3847 9.77066 90.7333 9.88969 90.8646C10.1543 91.1564 11.0425 91.9158 13.569 92.663C19.5184 94.4227 29.4569 94.5701 38.3054 94.5701C40.3371 94.5701 42.4174 94.5604 44.5391 94.5505C46.7581 94.5402 49.0527 94.5295 51.3797 94.5295C53.7043 94.5295 55.9987 94.5402 58.2175 94.5505C60.3402 94.5604 62.4219 94.5701 64.454 94.5701ZM64.454 104.025C60.2791 104.025 55.8963 103.984 51.3797 103.984C46.8594 103.984 42.4803 104.025 38.3054 104.025C16.2648 104.025 0 102.914 0 88.9953C0 72.4431 23.6214 56.7512 51.9985 56.7512C80.3756 56.7512 103.998 72.4431 103.998 88.9953C103.998 102.917 86.4983 104.025 64.454 104.025Z" fill="#C4C4C4"/>
<path d="M51.3636 9.45455C40.9371 9.45455 32.4545 16.8768 32.4545 26C32.4545 35.1232 40.9371 42.5455 51.3636 42.5455C61.7902 42.5455 70.2727 35.1232 70.2727 26C70.2727 16.8768 61.7902 9.45455 51.3636 9.45455ZM51.3636 0C67.0279 0 79.7273 11.6376 79.7273 26C79.7273 40.3589 67.0279 52 51.3636 52C35.6956 52 23 40.3589 23 26C23 11.6376 35.6956 0 51.3636 0Z" fill="#C4C4C4"/>
</svg>
